<svg width="146" height="192" viewBox="0 0 146 192" fill="none" xmlns="http://www.w3.org/2000/svg">
<path d="M11.1871 153.208C5.1706 148.623 3.62739 147.025 3.25577 143.83M11.1871 153.208C19.0957 158.039 34.7968 167.612 48.5163 175.594M11.1871 153.208L19.4031 145.624M71.1995 3.74141C72.0606 3.33426 72.635 3.09373 73.0726 3C73.5102 3.09373 74.0846 3.33426 74.9456 3.74141M71.1995 3.74141L69.5921 17.0459M71.1995 3.74141C66.7086 5.86504 56.9127 11.9448 46.5516 18.7759M69.5921 17.0459L51.1954 35.9823M69.5921 17.0459H76.5531M51.1954 35.9823L68.3418 38.6875M51.1954 35.9823L22.4394 41.3441M51.1954 35.9823L38.5142 54.7384M68.3418 38.6875L73.0208 37.2447L77.8033 38.6875M68.3418 38.6875C56.5788 44.0529 50.0619 47.6763 38.5142 54.7384M8.08837 47.5245C9.65852 45.4579 11.4531 44.1313 12.7945 43.0158C16.6419 39.2282 32.1432 28.2755 46.5516 18.7759M8.08837 47.5245C6.10445 50.1356 4.47886 53.9281 4.57856 59.9684C4.43973 65.1044 4.17445 79.3126 3.82853 98.3823M8.08837 47.5245L18.3315 43.849M46.5516 18.7759L22.4394 41.3441M22.4394 41.3441L20.6534 43.0158L18.3315 43.849M38.5142 54.7384L31.0127 93.5129M38.5142 54.7384L23.6897 66.8216M31.0127 93.5129L39.2286 129.582M31.0127 93.5129L25.2972 121.647M31.0127 93.5129L23.6897 66.8216M39.2286 129.582L25.2972 121.647M39.2286 129.582L69.4135 145.624M39.2286 129.582L57.8039 147.617M18.3315 43.849L23.6897 66.8216M23.6897 66.8216L3.82853 98.3823M3.82853 98.3823C3.62668 109.51 3.39736 122.293 3.14969 135.894C3.2148 139.641 3.0427 141.998 3.25577 143.83M3.82853 98.3823L25.2972 121.647M25.2972 121.647L3.25577 143.83M25.2972 121.647L19.4031 145.624M69.4135 145.624L73.0726 147.617L76.7317 145.624M69.4135 145.624L57.8039 147.617M57.8039 147.617L73.0726 167.455M57.8039 147.617L19.4031 145.624M73.0726 167.455L48.5163 175.594M73.0726 167.455L88.3412 147.617M73.0726 167.455L97.6288 175.594M48.5163 175.594C59.894 182.213 70.0826 187.738 73.1595 188.556C76.2364 187.738 86.2512 182.213 97.6288 175.594M48.5163 175.594L19.4031 145.624M134.958 153.208C140.975 148.623 142.518 147.025 142.889 143.83M134.958 153.208C127.049 158.039 111.348 167.612 97.6288 175.594M134.958 153.208L126.742 145.624M74.9456 3.74141L76.5531 17.0459M74.9456 3.74141C79.4365 5.86504 89.2324 11.9448 99.5935 18.7759M76.5531 17.0459L94.9497 35.9823M94.9497 35.9823L77.8033 38.6875M94.9497 35.9823L123.706 41.3441M94.9497 35.9823L107.631 54.7384M77.8033 38.6875C89.5663 44.0529 96.0833 47.6763 107.631 54.7384M138.057 47.5245C136.487 45.4579 134.692 44.1313 133.351 43.0158C129.503 39.2282 114.002 28.2755 99.5935 18.7759M138.057 47.5245C140.041 50.1356 141.666 53.9281 141.567 59.9684C141.705 65.1044 141.971 79.3126 142.317 98.3823M138.057 47.5245L127.814 43.849M99.5935 18.7759L123.706 41.3441M123.706 41.3441L125.492 43.0158L127.814 43.849M107.631 54.7384L115.132 93.5129M107.631 54.7384L122.455 66.8216M115.132 93.5129L106.916 129.582M115.132 93.5129L120.848 121.647M115.132 93.5129L122.455 66.8216M106.916 129.582L120.848 121.647M106.916 129.582L76.7317 145.624M106.916 129.582L88.3412 147.617M127.814 43.849L122.455 66.8216M122.455 66.8216L142.317 98.3823M142.317 98.3823C142.518 109.51 142.748 122.293 142.995 135.894C142.93 139.641 143.102 141.998 142.889 143.83M142.317 98.3823L120.848 121.647M120.848 121.647L142.889 143.83M120.848 121.647L126.742 145.624M76.7317 145.624L88.3412 147.617M88.3412 147.617L126.742 145.624M97.6288 175.594L126.742 145.624" stroke="#4B0082" stroke-width="5.14914"/>
<path d="M73.0725 122.662C73.0725 101.857 79.1619 95.7673 99.9677 95.7673C79.1619 95.7673 73.0725 89.6778 73.0725 68.8721C73.0725 89.6778 65.9681 95.7673 46.1772 95.7673C66.577 95.7673 73.0725 101.857 73.0725 122.662Z" fill="#D4AF37"/>
</svg>
